<svg id="Layer_10" data-name="Layer 10" xmlns="http://www.w3.org/2000/svg" viewBox="0 0 1535.95 172.86"><defs><style>.cls-1{fill:none;stroke:#000;stroke-miterlimit:10;}</style></defs><title>clip_01</title><path class="cls-1" d="M1666.5,226.28l-.55-.55-83.32-83.33c-8,8-68.91,68.92-115.81,115.81L1465,260l-46.88-46.87-49.55,49.55L1253.49,147.56l-25.69,25.68-76.88-76.89-87.8,87.8L980.9,101.92c-6.5,6.49-49.32,49.32-94.56,94.56l-76.89-76.89c-3.62,3.61-33.39,33.39-57.76,57.76L727,152.68,678.7,201,568.92,91.23,441.68,218.47l-49.75-49.75c-2.46,2.45-19,19-36.13,36.13l-31.3,31.29L223,134.59l-91.7,91.69" transform="translate(-130.9 -90.52)"/></svg>