<svg id="Layer_5" data-name="Layer 5" xmlns="http://www.w3.org/2000/svg" xmlns:xlink="http://www.w3.org/1999/xlink" viewBox="0 0 1501 670"><defs><style>.cls-1{fill:none;}.cls-2{stroke:#bbb;stroke-miterlimit:10;}.cls-3{fill:url(#New_Pattern_5);}</style><pattern id="New_Pattern_5" data-name="New Pattern 5" x="-242" y="-295" width="1500" height="1500" patternUnits="userSpaceOnUse" viewBox="0 0 1500 1500" style="fill:#bbb"><rect class="cls-1" width="1500" height="1500"/><path class="cls-2" d="M1706.92,1324.59l-31.3,31.3-101.55-101.56L1482.38,1346v443.22H3017.62V1346l-.55-.55-83.32-83.32L2817.94,1378l-1.78,1.79-46.87-46.88-49.56,49.55L2604.61,1267.3,2578.93,1293,2502,1216.1l-87.8,87.79L2332,1221.66l-94.56,94.56-76.89-76.89-57.76,57.76-24.67-24.67c-3.57,3.57-24.22,24.23-48.32,48.32L1920.05,1211,1792.8,1338.21l-49.75-49.75Z"/><path class="cls-2" d="M206.92,1324.59l-31.3,31.3L74.07,1254.33c-5.56,5.56-61.57,61.58-91.69,91.69v443.22H1517.62V1346l-.55-.55-83.32-83.32L1317.94,1378l-1.78,1.79-46.87-46.88-49.56,49.55L1104.61,1267.3,1078.93,1293,1002,1216.1l-87.8,87.79L832,1221.66l-94.56,94.56-76.89-76.89-57.76,57.76-24.67-24.67-48.32,48.32L420.05,1211,292.8,1338.21l-49.75-49.75Z"/><path class="cls-2" d="M-1293.08,1324.59l-31.3,31.3-101.55-101.56-91.69,91.69v443.22H17.62V1346l-.55-.55-83.32-83.32L-182.06,1378l-1.78,1.79-46.87-46.88-49.56,49.55L-395.39,1267.3-421.07,1293-498,1216.1l-87.8,87.79L-668,1221.66l-94.56,94.56-76.89-76.89-57.76,57.76-24.67-24.67-48.32,48.32L-1079.95,1211l-127.25,127.24-49.75-49.75Z"/><path class="cls-2" d="M1706.92,574.59l-31.3,31.3L1574.07,504.33,1482.38,596v443.22H3017.62V596l-.55-.55-83.32-83.32L2817.94,628l-1.78,1.79-46.87-46.88-49.56,49.55L2604.61,517.3,2578.93,543,2502,466.1l-87.8,87.79L2332,471.66l-94.56,94.56-76.89-76.89-57.76,57.76-24.67-24.67c-3.57,3.57-24.22,24.23-48.32,48.32L1920.05,461,1792.8,588.21l-49.75-49.75C1740.59,540.91,1724.06,557.44,1706.92,574.59Z"/><path class="cls-2" d="M206.92,574.59l-31.3,31.3L74.07,504.33-17.62,596v443.22H1517.62V596l-.55-.55-83.32-83.32L1317.94,628l-1.78,1.79-46.87-46.88-49.56,49.55L1104.61,517.3,1078.93,543,1002,466.1l-87.8,87.79L832,471.66l-94.56,94.56-76.89-76.89-57.76,57.76-24.67-24.67-48.32,48.32L420.05,461,292.8,588.21l-49.75-49.75C240.59,540.91,224.06,557.44,206.92,574.59Z"/><path class="cls-2" d="M-1293.08,574.59l-31.3,31.3-101.55-101.56L-1517.62,596v443.22H17.62V596l-.55-.55-83.32-83.32L-182.06,628l-1.78,1.79-46.87-46.88-49.56,49.55L-395.39,517.3-421.07,543-498,466.1l-87.8,87.79L-668,471.66l-94.56,94.56-76.89-76.89-57.76,57.76-24.67-24.67-48.32,48.32L-1079.95,461-1207.2,588.21l-49.75-49.75C-1259.41,540.91-1275.94,557.44-1293.08,574.59Z"/><path class="cls-2" d="M1706.92-175.41l-31.3,31.3L1574.07-245.67,1482.38-154V289.24H3017.62V-154l-.55-.55-83.32-83.32L2817.94-122l-1.78,1.79-46.87-46.88-49.56,49.55L2604.61-232.7,2578.93-207,2502-283.9l-87.8,87.79L2332-278.34l-94.56,94.56-76.89-76.89-57.76,57.76-24.67-24.67c-3.57,3.57-24.22,24.23-48.32,48.32L1920.05-289,1792.8-161.79l-49.75-49.75C1740.59-209.09,1724.06-192.56,1706.92-175.41Z"/><path class="cls-2" d="M206.92-175.41l-31.3,31.3L74.07-245.67-17.62-154V289.24H1517.62V-154l-.55-.55-83.32-83.32L1317.94-122l-1.78,1.79-46.87-46.88-49.56,49.55L1104.61-232.7,1078.93-207,1002-283.9l-87.8,87.79L832-278.34l-94.56,94.56-76.89-76.89-57.76,57.76-24.67-24.67-48.32,48.32L420.05-289,292.8-161.79l-49.75-49.75C240.59-209.09,224.06-192.56,206.92-175.41Z"/><path class="cls-2" d="M-1293.08-175.41l-31.3,31.3-101.55-101.56L-1517.62-154V289.24H17.62V-154l-.55-.55-83.32-83.32L-182.06-122l-1.78,1.79-46.87-46.88-49.56,49.55L-395.39-232.7-421.07-207-498-283.9l-87.8,87.79L-668-278.34l-94.56,94.56-76.89-76.89-57.76,57.76-24.67-24.67-48.32,48.32L-1079.95-289-1207.2-161.79l-49.75-49.75C-1259.41-209.09-1275.94-192.56-1293.08-175.41Z"/></pattern></defs><title>Triangle_Stuff_10</title><rect class="cls-3" width="1501" height="670"/></svg>